<mxfile host="app.diagrams.net" modified="2024-03-16T06:56:56.571Z" agent="Mozilla/5.0 (Windows NT 10.0; Win64; x64; rv:121.0) Gecko/20100101 Firefox/121.0" version="24.0.7" etag="nvVRKyTybc5jrextclyG" type="github">
  <diagram name="Страница — 1" id="RN8FDjic-akYMQ6OIXhk">
    <mxGraphModel>
      <root>
        <mxCell id="0" />
        <mxCell id="1" parent="0" />
      </root>
    </mxGraphModel>
  </diagram>
</mxfile>
